<?xml version="1.0" encoding="utf-8"?>
<svg viewBox="0 0 500 500" xmlns="http://www.w3.org/2000/svg">
  <path fill="#EA590D" opacity="1.000000" stroke="none" d=" M129.817200,393.227966 C94.804291,369.342926 70.922943,337.569122 59.537624,297.055054 C47.389668,253.827179 51.799355,211.818970 72.627892,172.115509 C92.485115,134.263580 122.756393,107.423676 162.804581,92.048126 C197.843781,78.595665 233.616821,77.118301 269.618042,87.354378 C304.574585,97.293434 333.421204,116.828346 356.178223,145.218933 C359.494873,149.356598 362.534241,153.716553 366.139496,158.561707 C364.421143,158.761459 363.388153,158.984970 362.354858,158.986237 C344.859222,159.007751 327.362732,159.079025 309.868927,158.899063 C307.793518,158.877716 305.313019,157.945023 303.725983,156.601303 C258.087830,117.960678 190.863541,116.627144 145.028427,154.821381 C109.356956,184.546265 94.088455,223.349152 100.866905,269.533691 C108.562599,321.967896 147.092239,362.535309 198.884338,372.582092 C237.686539,380.109039 272.803101,370.758240 303.468109,345.465668 C304.893982,344.289581 306.884460,343.120087 308.622345,343.104523 C327.445160,342.935913 346.270081,342.999207 366.422913,342.999207 C361.898163,349.052032 358.165985,354.625580 353.858185,359.711609 C328.365295,389.809845 296.375641,409.492249 257.757751,417.541565 C228.917755,423.552826 200.163437,422.160706 171.928070,413.189453 C157.097931,408.477478 143.226624,401.770172 129.817200,393.227966 z"/>
  <path fill="#030303" opacity="1.000000" stroke="none" d=" M324.975006,247.000000 C324.975006,263.124268 324.975006,278.748505 324.975006,294.688904 C318.745667,294.688904 312.696289,294.688904 306.356995,294.688904 C306.253754,293.083984 306.154083,291.533997 306.044647,289.832184 C289.858398,299.453125 276.562958,298.273163 267.250427,286.591583 C258.142731,275.166962 258.937073,257.341858 269.027557,246.712418 C278.355682,236.886063 293.056915,236.042023 305.843170,245.026093 C305.843170,231.013474 305.843170,217.377106 305.843170,203.476593 C312.323578,203.476593 318.248077,203.476593 324.975006,203.476593 C324.975006,217.734329 324.975006,232.117157 324.975006,247.000000 M288.510010,279.563782 C289.807404,279.822937 291.093964,280.207306 292.403961,280.320801 C300.498444,281.022003 306.345642,275.794800 306.432556,267.843536 C306.518890,259.946198 300.685730,254.449432 292.725281,254.926682 C287.171875,255.259628 282.690155,259.001984 281.344849,264.429749 C279.883606,270.324921 282.165771,275.528656 288.510010,279.563782 z"/>
  <path fill="#050505" opacity="1.000000" stroke="none" d=" M234.184067,264.390320 C233.338882,256.989777 229.586731,253.150528 223.944748,253.470139 C218.045166,253.804321 213.338425,258.746887 213.247070,265.141113 C213.106949,274.951233 213.210236,284.764801 213.210236,294.761597 C206.869186,294.761597 200.812637,294.761597 194.569183,294.761597 C194.569183,276.602905 194.569183,258.692627 194.569183,240.490509 C200.711761,240.490509 206.640762,240.490509 212.811722,240.490509 C213.042206,241.880722 213.301193,243.442932 213.668869,245.660812 C223.012299,237.027039 233.047409,237.019333 243.417664,242.267105 C249.553818,245.372253 252.902969,250.648865 253.007263,257.518646 C253.193985,269.819427 253.059860,282.125122 253.059860,294.718811 C246.855927,294.718811 240.791992,294.718811 234.196136,294.718811 C234.196136,284.721680 234.196136,274.783783 234.184067,264.390320 z"/>
  <path fill="#040404" opacity="1.000000" stroke="none" d=" M351.884766,294.244873 C334.987579,285.907898 328.840210,268.326111 337.406036,253.702103 C346.264496,238.578522 367.421814,233.870865 381.888519,243.837448 C390.949432,250.079788 393.384277,259.188293 392.991882,270.176788 C386.293213,270.176788 379.707367,270.176819 373.121552,270.176819 C366.683167,270.176819 360.244781,270.176788 353.805511,270.176788 C353.958832,279.566132 364.193909,285.551544 372.190704,279.891907 C379.014709,275.062256 383.423401,277.535858 388.802185,280.679138 C389.797455,281.260742 390.831543,281.775940 391.853363,282.324860 C384.244385,295.053162 368.333740,299.859680 351.884766,294.244873 M371.210388,259.893005 C373.961151,260.242493 374.900879,259.252808 373.782745,256.558899 C372.131531,252.580536 367.230652,250.261734 362.046906,251.081238 C357.195190,251.848236 354.645111,254.698105 354.337738,259.893127 C359.656097,259.893127 364.963348,259.893127 371.210388,259.893005 z"/>
  <path fill="#040404" opacity="1.000000" stroke="none" d=" M444.043945,254.000549 C443.268311,255.457169 442.624023,256.570251 442.011505,257.628448 C440.065094,256.909668 438.430115,256.143799 436.712006,255.698502 C427.534729,253.319824 421.174835,258.111450 421.049927,267.609741 C420.932129,276.567596 421.024628,285.528259 421.024628,294.746521 C414.695984,294.746521 408.638550,294.746521 402.338196,294.746521 C402.338196,276.723206 402.338196,258.815033 402.338196,240.553268 C408.382874,240.553268 414.440155,240.553268 420.801453,240.553268 C420.923309,242.592865 421.047607,244.673096 421.226624,247.669159 C429.491486,238.228165 438.791809,236.346771 449.926575,242.004852 C447.914764,246.080780 446.045044,249.868896 444.043945,254.000549 z"/>
  <path fill="#040404" opacity="1.000000" stroke="none" d=" M162.101501,279.995209 C162.101501,266.575775 162.101501,253.655624 162.101501,240.473114 C168.431000,240.473114 174.344498,240.473114 180.640808,240.473114 C180.640808,258.388794 180.640808,276.389954 180.640808,294.700012 C174.798721,294.700012 168.746719,294.700012 162.101501,294.700012 C162.101501,290.000641 162.101501,285.247559 162.101501,279.995209 z"/>
  <path fill="#050505" opacity="1.000000" stroke="none" d=" M163.344849,210.502747 C168.385468,206.227188 172.979065,205.398895 177.238632,207.958420 C181.472534,210.502548 183.625641,214.320770 182.877563,219.271576 C182.136597,224.175278 179.090012,227.373291 174.284378,228.550537 C169.600266,229.698029 165.669556,228.034042 162.909760,224.206238 C159.733170,219.800354 159.975082,215.222519 163.344849,210.502747 z"/>
</svg>